<svg xmlns="http://www.w3.org/2000/svg" xmlns:xlink="http://www.w3.org/1999/xlink" width="500" zoomAndPan="magnify" viewBox="0 0 375 374.999991" height="500" preserveAspectRatio="xMidYMid meet" version="1.0"><defs><clipPath id="2f9fff2600"><path d="M 187.5 0 C 83.945312 0 0 83.945312 0 187.5 C 0 291.054688 83.945312 375 187.5 375 C 291.054688 375 375 291.054688 375 187.5 C 375 83.945312 291.054688 0 187.5 0 Z M 187.5 0 " clip-rule="nonzero"/></clipPath><clipPath id="38bcd4274e"><path d="M 136 20 L 238 20 L 238 355 L 136 355 Z M 136 20 " clip-rule="nonzero"/></clipPath><clipPath id="37e10e6df3"><path d="M 344.132812 264.804688 L 137.914062 354.796875 L 31.125 110.082031 L 237.34375 20.089844 Z M 344.132812 264.804688 " clip-rule="nonzero"/></clipPath><clipPath id="829194c447"><path d="M 344.132812 264.804688 L 137.914062 354.796875 L 31.125 110.082031 L 237.34375 20.089844 Z M 344.132812 264.804688 " clip-rule="nonzero"/></clipPath></defs><g clip-path="url(#2f9fff2600)"><rect x="-37.5" width="450" fill="#586d53" y="-37.499999" height="449.999989" fill-opacity="1"/></g><g clip-path="url(#38bcd4274e)"><g clip-path="url(#37e10e6df3)"><g clip-path="url(#829194c447)"><path fill="#ffffff" d="M 137.882812 354.230469 C 138.445312 354.449219 139.101562 354.222656 139.382812 353.664062 L 223.832031 192.3125 C 224.046875 191.871094 223.980469 191.316406 223.640625 190.941406 C 223.300781 190.5625 222.757812 190.453125 222.292969 190.65625 L 194.589844 202.746094 L 235.417969 114.335938 C 235.632812 113.894531 235.519531 113.363281 235.191406 113.011719 C 234.863281 112.660156 234.316406 112.546875 233.851562 112.75 L 208.152344 123.964844 L 237.800781 22.070312 C 237.960938 21.503906 237.683594 20.871094 237.113281 20.625 C 236.820312 20.488281 236.484375 20.519531 236.191406 20.648438 C 235.945312 20.753906 235.757812 20.925781 235.601562 21.167969 L 144.609375 188.402344 C 144.359375 188.832031 144.4375 189.40625 144.773438 189.785156 C 145.113281 190.160156 145.65625 190.273438 146.121094 190.070312 L 171.429688 179.027344 L 136.957031 261.660156 C 136.78125 262.117188 136.882812 262.625 137.238281 262.964844 C 137.589844 263.304688 138.097656 263.402344 138.5625 263.199219 L 165.558594 251.421875 L 137.167969 352.796875 C 136.984375 353.371094 137.285156 353.996094 137.882812 354.230469 Z M 137.882812 354.230469 " fill-opacity="1" fill-rule="nonzero"/></g></g></g></svg>